<svg xmlns="http://www.w3.org/2000/svg" xmlns:xlink="http://www.w3.org/1999/xlink" width="89.834" height="57.23" viewBox="0 0 89.834 57.23">
  <defs>
    <filter id="Path_30949" x="0" y="0" width="29.875" height="35.274" filterUnits="userSpaceOnUse">
      <feOffset dy="3" input="SourceAlpha"/>
      <feGaussianBlur stdDeviation="2" result="blur"/>
      <feFlood flood-opacity="0.259"/>
      <feComposite operator="in" in2="blur"/>
      <feComposite in="SourceGraphic"/>
    </filter>
    <filter id="Path_30950" x="21.024" y="0.544" width="25.32" height="34.238" filterUnits="userSpaceOnUse">
      <feOffset dy="3" input="SourceAlpha"/>
      <feGaussianBlur stdDeviation="2" result="blur-2"/>
      <feFlood flood-opacity="0.259"/>
      <feComposite operator="in" in2="blur-2"/>
      <feComposite in="SourceGraphic"/>
    </filter>
    <filter id="Path_30951" x="37.462" y="6.298" width="27.641" height="28.821" filterUnits="userSpaceOnUse">
      <feOffset dy="3" input="SourceAlpha"/>
      <feGaussianBlur stdDeviation="2" result="blur-3"/>
      <feFlood flood-opacity="0.259"/>
      <feComposite operator="in" in2="blur-3"/>
      <feComposite in="SourceGraphic"/>
    </filter>
    <filter id="Path_30952" x="56.313" y="6.297" width="27.261" height="34.614" filterUnits="userSpaceOnUse">
      <feOffset dy="3" input="SourceAlpha"/>
      <feGaussianBlur stdDeviation="2" result="blur-4"/>
      <feFlood flood-opacity="0.259"/>
      <feComposite operator="in" in2="blur-4"/>
      <feComposite in="SourceGraphic"/>
    </filter>
    <filter id="Path_30953" x="34.509" y="21.959" width="33.3" height="35.271" filterUnits="userSpaceOnUse">
      <feOffset dy="3" input="SourceAlpha"/>
      <feGaussianBlur stdDeviation="2" result="blur-5"/>
      <feFlood flood-opacity="0.259"/>
      <feComposite operator="in" in2="blur-5"/>
      <feComposite in="SourceGraphic"/>
    </filter>
    <filter id="Path_30954" x="56.311" y="28.625" width="25.331" height="28.442" filterUnits="userSpaceOnUse">
      <feOffset dy="3" input="SourceAlpha"/>
      <feGaussianBlur stdDeviation="2" result="blur-6"/>
      <feFlood flood-opacity="0.259"/>
      <feComposite operator="in" in2="blur-6"/>
      <feComposite in="SourceGraphic"/>
    </filter>
    <filter id="Path_30955" x="69.242" y="23.798" width="20.591" height="32.931" filterUnits="userSpaceOnUse">
      <feOffset dy="3" input="SourceAlpha"/>
      <feGaussianBlur stdDeviation="2" result="blur-7"/>
      <feFlood flood-opacity="0.259"/>
      <feComposite operator="in" in2="blur-7"/>
      <feComposite in="SourceGraphic"/>
    </filter>
  </defs>
  <g id="Shop_Out" data-name="Shop Out" transform="translate(6.003 3.042)" style="isolation: isolate">
    <g id="Group_11979" data-name="Group 11979" transform="translate(-0.003 -0.042)" style="isolation: isolate">
      <g transform="matrix(1, 0, 0, 1, -6, -3)" filter="url(#Path_30949)">
        <path id="Path_30949-2" data-name="Path 30949" d="M300.629,351.592a6.277,6.277,0,0,0-3.783-1.074,9.087,9.087,0,0,0-1.839.182,4.875,4.875,0,0,0-1.6.624,3.283,3.283,0,0,0-1.122,1.167,3.631,3.631,0,0,0-.42,1.824,2.313,2.313,0,0,0,.607,1.665,4.465,4.465,0,0,0,1.62,1.043,13.6,13.6,0,0,0,2.3.673c.85.182,1.717.365,2.6.574s1.749.452,2.6.73a8.515,8.515,0,0,1,2.278,1.14,5.42,5.42,0,0,1,1.62,1.806,6.321,6.321,0,0,1-.188,5.773,6.524,6.524,0,0,1-2.039,2.054,8.854,8.854,0,0,1-2.787,1.153,13.519,13.519,0,0,1-3.068.365,13.02,13.02,0,0,1-3.532-.476,8.711,8.711,0,0,1-2.919-1.415,6.74,6.74,0,0,1-2-2.415,7.843,7.843,0,0,1-.73-3.5h2.8A4.841,4.841,0,0,0,293,367.562a6.05,6.05,0,0,0,2.07.965,9.5,9.5,0,0,0,2.43.312,10.939,10.939,0,0,0,2.006-.182,5.912,5.912,0,0,0,1.824-.638,3.413,3.413,0,0,0,1.8-3.236,2.786,2.786,0,0,0-.607-1.868,4.462,4.462,0,0,0-1.62-1.169,11.8,11.8,0,0,0-2.289-.73l-2.6-.578q-1.324-.3-2.6-.686a9.445,9.445,0,0,1-2.289-1.027,4.577,4.577,0,0,1-2.224-4.19,5.9,5.9,0,0,1,.684-2.919,5.984,5.984,0,0,1,1.824-2.025A8.233,8.233,0,0,1,294,348.407a11.434,11.434,0,0,1,2.975-.388,11.9,11.9,0,0,1,3.178.4,7.182,7.182,0,0,1,2.568,1.277,6.155,6.155,0,0,1,1.744,2.189,7.824,7.824,0,0,1,.7,3.161h-2.809A4.613,4.613,0,0,0,300.629,351.592Z" transform="translate(-282.22 -345.02)" fill="#fff"/>
      </g>
      <g transform="matrix(1, 0, 0, 1, -6, -3)" filter="url(#Path_30950)">
        <path id="Path_30950-2" data-name="Path 30950" d="M406.12,351v8.5h.062a3.5,3.5,0,0,1,.872-1.26,4.928,4.928,0,0,1,1.26-.841,6.547,6.547,0,0,1,1.459-.483,7.39,7.39,0,0,1,1.479-.155,7,7,0,0,1,2.647.436,4.355,4.355,0,0,1,1.713,1.215,4.523,4.523,0,0,1,.912,1.853,9.947,9.947,0,0,1,.264,2.382v10.589h-2.643V362.33a3.016,3.016,0,0,0-3.271-3.245,5.406,5.406,0,0,0-2.1.365,3.946,3.946,0,0,0-1.479,1.06,4.545,4.545,0,0,0-.888,1.6,6.538,6.538,0,0,0-.286,2.021v9.093h-2.65V351Z" transform="translate(-376.45 -347.46)" fill="#fff"/>
      </g>
      <g transform="matrix(1, 0, 0, 1, -6, -3)" filter="url(#Path_30951)">
        <path id="Path_30951-2" data-name="Path 30951" d="M494.093,387.669a7.5,7.5,0,0,1,1.5-2.68,7.067,7.067,0,0,1,2.452-1.791,9.032,9.032,0,0,1,6.749,0,7.114,7.114,0,0,1,2.444,1.791,7.5,7.5,0,0,1,1.5,2.68,10.72,10.72,0,0,1,.5,3.316,10.582,10.582,0,0,1-.5,3.3,7.5,7.5,0,0,1-1.5,2.663,6.889,6.889,0,0,1-2.444,1.775,9.223,9.223,0,0,1-6.749,0,6.848,6.848,0,0,1-2.459-1.775,7.5,7.5,0,0,1-1.5-2.663,10.582,10.582,0,0,1-.5-3.3A10.721,10.721,0,0,1,494.093,387.669Zm2.694,5.917a5.387,5.387,0,0,0,1.071,1.9,4.629,4.629,0,0,0,1.6,1.169,4.885,4.885,0,0,0,3.894,0,4.662,4.662,0,0,0,1.6-1.169,5.421,5.421,0,0,0,1.074-1.9,8.9,8.9,0,0,0,0-5.2,5.633,5.633,0,0,0-1.074-1.915,4.634,4.634,0,0,0-1.6-1.184,4.885,4.885,0,0,0-3.894,0,4.6,4.6,0,0,0-1.6,1.184,5.6,5.6,0,0,0-1.074,1.915,8.9,8.9,0,0,0,0,5.2Z" transform="translate(-450.13 -373.25)" fill="#fff"/>
      </g>
      <g transform="matrix(1, 0, 0, 1, -6, -3)" filter="url(#Path_30952)">
        <path id="Path_30952-2" data-name="Path 30952" d="M599.577,382.915v2.18h.062a3.968,3.968,0,0,1,2.056-1.946,7.677,7.677,0,0,1,3.092-.607,7.248,7.248,0,0,1,3.254.686,6.617,6.617,0,0,1,2.3,1.851,8.208,8.208,0,0,1,1.386,2.694,11,11,0,0,1,.46,3.241,11.369,11.369,0,0,1-.451,3.24,7.624,7.624,0,0,1-1.372,2.663,6.445,6.445,0,0,1-2.3,1.79,7.479,7.479,0,0,1-3.223.653,8.045,8.045,0,0,1-1.324-.124,7.457,7.457,0,0,1-1.448-.4,5.634,5.634,0,0,1-1.355-.763,4.309,4.309,0,0,1-1.075-1.2h-.062v8.285H596.93V382.915Zm9.515,5.715a5.909,5.909,0,0,0-.912-1.915,4.429,4.429,0,0,0-1.556-1.339,4.741,4.741,0,0,0-2.227-.5,4.378,4.378,0,0,0-3.8,1.917,5.769,5.769,0,0,0-.857,1.946,9.454,9.454,0,0,0,.015,4.5,5.681,5.681,0,0,0,.888,1.946,4.523,4.523,0,0,0,1.591,1.355,4.912,4.912,0,0,0,2.337.514,4.518,4.518,0,0,0,2.289-.531,4.237,4.237,0,0,0,1.479-1.4,6.076,6.076,0,0,0,.81-1.994,10.589,10.589,0,0,0,.241-2.3A8.245,8.245,0,0,0,609.091,388.63Z" transform="translate(-534.62 -373.24)" fill="#fff"/>
      </g>
    </g>
    <g id="Group_11980" data-name="Group 11980" transform="translate(34.505 21.917)" style="isolation: isolate">
      <g transform="matrix(1, 0, 0, 1, -40.51, -24.96)" filter="url(#Path_30953)">
        <path id="Path_30953-2" data-name="Path 30953" d="M478.067,475.673a11.023,11.023,0,0,1,2.006-3.721,9.789,9.789,0,0,1,3.333-2.585,11.62,11.62,0,0,1,9.281,0,9.823,9.823,0,0,1,3.333,2.585,11.052,11.052,0,0,1,2.007,3.721,14.637,14.637,0,0,1,0,8.756,11.046,11.046,0,0,1-2.007,3.723,9.649,9.649,0,0,1-3.333,2.568,11.8,11.8,0,0,1-9.281,0,9.613,9.613,0,0,1-3.333-2.568,11.02,11.02,0,0,1-2.006-3.723A14.635,14.635,0,0,1,478.067,475.673Zm2.723,7.694a9.023,9.023,0,0,0,1.372,2.942,6.994,6.994,0,0,0,2.4,2.1,8.066,8.066,0,0,0,6.977,0,7,7,0,0,0,2.4-2.1,9.016,9.016,0,0,0,1.37-2.942,12.837,12.837,0,0,0,0-6.634,9,9,0,0,0-1.37-2.944,7,7,0,0,0-2.4-2.1,8.049,8.049,0,0,0-6.977,0,6.989,6.989,0,0,0-2.4,2.1,9.012,9.012,0,0,0-1.372,2.944A12.839,12.839,0,0,0,480.79,483.367Z" transform="translate(-436.89 -443.44)" fill="#fff"/>
      </g>
      <g transform="matrix(1, 0, 0, 1, -40.51, -24.96)" filter="url(#Path_30954)">
        <path id="Path_30954-2" data-name="Path 30954" d="M607.758,521.043V518.49H607.7a5.41,5.41,0,0,1-2.149,2.189,6.437,6.437,0,0,1-3.083.7,7.214,7.214,0,0,1-2.649-.421,4.2,4.2,0,0,1-1.713-1.2,4.485,4.485,0,0,1-.912-1.853,9.948,9.948,0,0,1-.272-2.375V504.94h2.649v10.9a3.014,3.014,0,0,0,3.271,3.243,5.373,5.373,0,0,0,2.1-.374,3.924,3.924,0,0,0,1.479-1.058,4.561,4.561,0,0,0,.888-1.605,6.509,6.509,0,0,0,.3-2.007v-9.1h2.647v16.1Z" transform="translate(-534.61 -473.32)" fill="#fff"/>
      </g>
    </g>
    <g id="Group_11981" data-name="Group 11981" transform="translate(69.239 23.756)" style="isolation: isolate">
      <g transform="matrix(1, 0, 0, 1, -75.24, -26.8)" filter="url(#Path_30955)">
        <path id="Path_30955-2" data-name="Path 30955" d="M676.4,483.307v2.337h-3.207v10a2.945,2.945,0,0,0,.076.748.778.778,0,0,0,.3.436,1.293,1.293,0,0,0,.607.2,8.865,8.865,0,0,0,1.01.046H676.4v2.337h-2.023a9.533,9.533,0,0,1-1.76-.14,2.572,2.572,0,0,1-1.184-.514,2.19,2.19,0,0,1-.669-1.058,6.1,6.1,0,0,1-.219-1.806V485.643H667.81v-2.337h2.736V478.48h2.649v4.827Z" transform="translate(-592.57 -451.68)" fill="#fff"/>
      </g>
    </g>
  </g>
</svg>
