<svg id="notifications-24px" xmlns="http://www.w3.org/2000/svg" width="32" height="32" viewBox="0 0 32 32">
  <path id="Path_30940" data-name="Path 30940" d="M0,0H32V32H0Z" fill="none"/>
  <path id="Path_30941" data-name="Path 30941" d="M14.667,28.5a2.675,2.675,0,0,0,2.667-2.667H12A2.675,2.675,0,0,0,14.667,28.5Zm8-8V13.833c0-4.093-2.173-7.52-6-8.427V4.5a2,2,0,1,0-4,0v.907c-3.813.907-6,4.32-6,8.427V20.5L4,23.167V24.5H25.333V23.167ZM20,21.833H9.333v-8c0-3.307,2.013-6,5.333-6S20,10.527,20,13.833Z" transform="translate(1.333 0.833)" fill="#0062ff"/>
</svg>
