<svg xmlns="http://www.w3.org/2000/svg" width="150" height="162" viewBox="0 0 150 162">
  <g id="Group_12066" data-name="Group 12066" transform="translate(-132 -268)">
    <g id="XMLID_1840_" transform="translate(157 268)">
      <g id="XMLID_1021_" transform="translate(0)">
        <path id="XMLID_1068_" d="M96.142,87.932a1.953,1.953,0,0,0-.808-2.641,30.63,30.63,0,0,0-33.778,3.372L58.4,85.507l5.154-5.154a1.953,1.953,0,0,0-2.762-2.762l-5.154,5.154L43.064,70.171a27.306,27.306,0,0,0,2.218-29.136,1.953,1.953,0,0,0-3.449,1.833,23.261,23.261,0,0,1-1.564,24.507l-8.286-8.286a4.793,4.793,0,0,0-7.89,1.74L.3,125.737a4.8,4.8,0,0,0,4.481,6.449,4.848,4.848,0,0,0,1.669-.3l64.908-23.793A4.793,4.793,0,0,0,73.1,100.2l-8.762-8.762A26.719,26.719,0,0,1,93.5,88.74a1.953,1.953,0,0,0,2.641-.808ZM31.108,118.687,13.5,101.077l4.879-13.311,26.041,26.041Zm-9.544,3.5L10,110.622l2.017-5.5,15.049,15.049ZM5.1,128.219a.887.887,0,0,1-1.138-1.138l4.552-12.417,9,9Zm65.469-24.435a.863.863,0,0,1-.561.642l-12.007,4.4L46.9,97.718a1.953,1.953,0,1,0-2.762,2.762l9.828,9.829-5.5,2.017-28.6-28.6,2.017-5.5,9.829,9.828a1.953,1.953,0,1,0,2.762-2.762L23.359,74.18l4.4-12.007a.864.864,0,0,1,.642-.561.942.942,0,0,1,.2-.022.85.85,0,0,1,.616.261l41.115,41.115a.864.864,0,0,1,.239.818Z" transform="translate(0 -32.186)" fill="#0062ff"/>
        <path id="XMLID_1441_" d="M293.55,23.173A1.953,1.953,0,0,0,295.5,21.22a2.97,2.97,0,0,1,2.967-2.966,6.88,6.88,0,0,0,6.873-6.873,1.953,1.953,0,0,0-3.906,0,2.97,2.97,0,0,1-2.966,2.966A6.881,6.881,0,0,0,291.6,21.22,1.953,1.953,0,0,0,293.55,23.173Z" transform="translate(-234.645 -7.587)" fill="#0062ff"/>
        <path id="XMLID_1462_" d="M382.272,115.709a7.106,7.106,0,0,0,7.1-7.1,3.2,3.2,0,0,1,3.192-3.192,1.953,1.953,0,0,0,0-3.906,7.106,7.106,0,0,0-7.1,7.1,3.2,3.2,0,0,1-3.192,3.192,1.953,1.953,0,1,0,0,3.906Z" transform="translate(-306.038 -81.686)" fill="#0062ff"/>
        <path id="XMLID_1489_" d="M448,167.735a6.25,6.25,0,1,0,6.25-6.25A6.257,6.257,0,0,0,448,167.735Zm6.25-2.344a2.344,2.344,0,1,1-2.344,2.344A2.346,2.346,0,0,1,454.252,165.391Z" transform="translate(-360.502 -129.945)" fill="#0062ff"/>
        <path id="XMLID_1502_" d="M289.36,118.354a6.25,6.25,0,1,0-6.25-6.25A6.257,6.257,0,0,0,289.36,118.354Zm0-8.594a2.344,2.344,0,1,1-2.344,2.344A2.346,2.346,0,0,1,289.36,109.76Z" transform="translate(-227.815 -85.179)" fill="#0062ff"/>
        <path id="XMLID_1619_" d="M102.252,12.5A6.25,6.25,0,1,0,96,6.25,6.257,6.257,0,0,0,102.252,12.5Zm0-8.594A2.344,2.344,0,1,1,99.908,6.25,2.346,2.346,0,0,1,102.252,3.906Z" transform="translate(-77.252)" fill="#0062ff"/>
        <path id="XMLID_1620_" d="M438.768,348.7a1.953,1.953,0,1,0-2.762,2.762l1.841,1.841a1.953,1.953,0,1,0,2.762-2.762Z" transform="translate(-350.388 -280.135)" fill="#0062ff"/>
        <path id="XMLID_1659_" d="M485.908,395.841a1.953,1.953,0,0,0-2.762,2.762l1.841,1.841a1.953,1.953,0,1,0,2.762-2.762Z" transform="translate(-388.321 -318.069)" fill="#0062ff"/>
        <path id="XMLID_1690_" d="M484.987,348.7l-1.841,1.841a1.953,1.953,0,0,0,2.762,2.762l1.841-1.841a1.953,1.953,0,1,0-2.762-2.762Z" transform="translate(-388.321 -280.135)" fill="#0062ff"/>
        <path id="XMLID_1712_" d="M437.847,395.841l-1.841,1.841a1.953,1.953,0,1,0,2.762,2.762l1.841-1.841a1.953,1.953,0,0,0-2.762-2.762Z" transform="translate(-350.388 -318.069)" fill="#0062ff"/>
        <path id="XMLID_1715_" d="M484.527,5.748a1.947,1.947,0,0,0,1.381-.572l1.841-1.841A1.953,1.953,0,0,0,484.987.572l-1.841,1.841a1.953,1.953,0,0,0,1.381,3.334Z" transform="translate(-388.321 0)" fill="#0062ff"/>
        <path id="XMLID_1747_" d="M437.386,52.887a1.947,1.947,0,0,0,1.381-.572l1.841-1.841a1.953,1.953,0,1,0-2.762-2.762L436,49.553a1.953,1.953,0,0,0,1.381,3.334Z" transform="translate(-350.387 -37.932)" fill="#0062ff"/>
        <path id="XMLID_1750_" d="M485.908,47.712a1.953,1.953,0,0,0-2.762,2.762l1.841,1.841a1.953,1.953,0,1,0,2.762-2.762Z" transform="translate(-388.321 -37.933)" fill="#0062ff"/>
        <path id="XMLID_1751_" d="M437.846,5.176a1.953,1.953,0,1,0,2.762-2.762L438.767.572A1.953,1.953,0,0,0,436,3.334Z" transform="translate(-350.387 0)" fill="#0062ff"/>
        <path id="XMLID_1755_" d="M193.174,300.78a1.954,1.954,0,1,0,1.381.572A1.968,1.968,0,0,0,193.174,300.78Z" transform="translate(-153.873 -242.034)" fill="#0062ff"/>
        <path id="XMLID_1756_" d="M338.927,194.259l-1.416,1.416a1.953,1.953,0,1,0,2.762,2.762l1.416-1.416a1.953,1.953,0,1,0-2.762-2.762Z" transform="translate(-271.131 -155.858)" fill="#0062ff"/>
      </g>
    </g>
    <ellipse id="Ellipse_89" data-name="Ellipse 89" cx="75" cy="11" rx="75" ry="11" transform="translate(132 408)" fill="#0062ff" opacity="0.1"/>
  </g>
</svg>
