<svg id="cancel-24px_1_" data-name="cancel-24px (1)" xmlns="http://www.w3.org/2000/svg" width="32" height="32" viewBox="0 0 32 32">
  <path id="Path_30912" data-name="Path 30912" d="M0,0H32V32H0Z" fill="none" opacity="0.87"/>
  <path id="Path_30913" data-name="Path 30913" d="M15.333,2A13.333,13.333,0,1,0,28.667,15.333,13.321,13.321,0,0,0,15.333,2Zm0,24A10.667,10.667,0,1,1,26,15.333,10.681,10.681,0,0,1,15.333,26Z" transform="translate(0.667 0.667)" fill="#e50000"/>
  <path id="Path_30916" data-name="Path 30916" d="M17.376,5.688a.924.924,0,0,0-1.309,0l-4.54,4.53-4.54-4.54A.926.926,0,0,0,5.679,6.988l4.54,4.54-4.54,4.54a.926.926,0,0,0,1.309,1.309l4.54-4.54,4.54,4.54a.926.926,0,0,0,1.309-1.309l-4.54-4.54,4.54-4.54A.93.93,0,0,0,17.376,5.688Z" transform="translate(4.469 4.469)" fill="#e50000"/>
</svg>
