<svg id="check_circle-24px_1_" data-name="check_circle-24px (1)" xmlns="http://www.w3.org/2000/svg" width="32" height="32" viewBox="0 0 32 32">
  <path id="Path_30917" data-name="Path 30917" d="M0,0H32V32H0Z" fill="none"/>
  <path id="Path_30918" data-name="Path 30918" d="M15.333,2A13.333,13.333,0,1,0,28.667,15.333,13.338,13.338,0,0,0,15.333,2Zm0,24A10.667,10.667,0,1,1,26,15.333,10.681,10.681,0,0,1,15.333,26Z" transform="translate(0.667 0.667)" fill="#0fb542"/>
  <path id="Path_30921" data-name="Path 30921" d="M8.254,14.736l-3-3a.848.848,0,0,0-1.2,1.2l3.588,3.588a.853.853,0,0,0,1.207,0L17.93,7.457a.848.848,0,0,0-1.2-1.2Z" transform="translate(5.269 4.669)" fill="#0fb542"/>
</svg>
