<?xml version="1.0" encoding="utf-8"?>
<!-- Generator: Adobe Illustrator 24.1.3, SVG Export Plug-In . SVG Version: 6.00 Build 0)  -->
<svg version="1.1" id="Layer_1" xmlns="http://www.w3.org/2000/svg" xmlns:xlink="http://www.w3.org/1999/xlink" x="0px" y="0px"
	 viewBox="0 0 73 54" style="enable-background:new 0 0 73 54;" xml:space="preserve">
<style type="text/css">
	.st0{enable-background:new    ;}
	.st1{fill:#0062FF;}
	.st2{font-family:'HelveticaNeue';}
	.st3{font-size:29px;}
</style>
<g class="st0">
	<path class="st1" d="M12.6,10.1c-0.9-0.7-2.1-1-3.5-1C8.5,9.1,8,9.2,7.4,9.3C6.8,9.4,6.3,9.6,5.9,9.9s-0.8,0.6-1,1.1
		c-0.3,0.5-0.4,1-0.4,1.7c0,0.6,0.2,1.2,0.6,1.6c0.4,0.4,0.9,0.7,1.5,1c0.6,0.3,1.3,0.5,2.1,0.6c0.8,0.2,1.6,0.3,2.4,0.5
		c0.8,0.2,1.6,0.4,2.4,0.7c0.8,0.3,1.5,0.6,2.1,1.1c0.6,0.4,1.1,1,1.5,1.7c0.4,0.7,0.6,1.5,0.6,2.6c0,1.1-0.2,2-0.7,2.8
		s-1.1,1.4-1.9,1.9c-0.8,0.5-1.6,0.9-2.6,1.1c-1,0.2-1.9,0.3-2.9,0.3c-1.2,0-2.3-0.1-3.3-0.4s-1.9-0.7-2.7-1.3
		c-0.8-0.6-1.4-1.3-1.9-2.3c-0.5-0.9-0.7-2-0.7-3.3h2.6c0,0.9,0.2,1.6,0.5,2.2C4.5,24.1,5,24.6,5.5,25c0.6,0.4,1.2,0.7,1.9,0.9
		c0.7,0.2,1.5,0.3,2.3,0.3c0.6,0,1.2-0.1,1.9-0.2c0.6-0.1,1.2-0.3,1.7-0.6c0.5-0.3,0.9-0.7,1.2-1.1c0.3-0.5,0.5-1.1,0.5-1.9
		c0-0.7-0.2-1.3-0.6-1.7c-0.4-0.4-0.9-0.8-1.5-1.1c-0.6-0.3-1.3-0.5-2.1-0.7c-0.8-0.2-1.6-0.4-2.4-0.5S6.7,18,5.9,17.7
		c-0.8-0.2-1.5-0.6-2.1-1c-0.6-0.4-1.1-0.9-1.5-1.5s-0.6-1.4-0.6-2.4c0-1,0.2-1.9,0.6-2.7c0.4-0.8,1-1.4,1.7-1.9
		c0.7-0.5,1.5-0.9,2.4-1.1c0.9-0.2,1.8-0.4,2.8-0.4c1.1,0,2,0.1,3,0.4c0.9,0.3,1.7,0.6,2.4,1.2s1.2,1.2,1.6,2
		c0.4,0.8,0.6,1.8,0.7,2.9h-2.6C14.1,11.9,13.6,10.8,12.6,10.1z"/>
	<path class="st1" d="M22.1,7.3v7.9h0.1c0.2-0.5,0.5-0.9,0.8-1.2c0.3-0.3,0.7-0.6,1.2-0.8c0.4-0.2,0.9-0.4,1.4-0.5
		c0.5-0.1,0.9-0.1,1.4-0.1c1,0,1.8,0.1,2.5,0.4s1.2,0.6,1.6,1.1c0.4,0.5,0.7,1.1,0.9,1.7c0.2,0.7,0.2,1.4,0.2,2.2V28h-2.5V17.8
		c0-0.9-0.3-1.7-0.8-2.2c-0.5-0.5-1.3-0.8-2.2-0.8c-0.8,0-1.4,0.1-2,0.3c-0.6,0.2-1,0.6-1.4,1c-0.4,0.4-0.6,0.9-0.8,1.5
		c-0.2,0.6-0.3,1.2-0.3,1.9V28h-2.5V7.3H22.1z"/>
	<path class="st1" d="M34.4,17.4c0.3-1,0.8-1.8,1.4-2.5c0.6-0.7,1.4-1.3,2.3-1.7c0.9-0.4,2-0.6,3.1-0.6c1.2,0,2.2,0.2,3.1,0.6
		c0.9,0.4,1.7,1,2.3,1.7c0.6,0.7,1.1,1.5,1.4,2.5c0.3,1,0.5,2,0.5,3.1c0,1.1-0.2,2.1-0.5,3.1c-0.3,0.9-0.8,1.8-1.4,2.5
		c-0.6,0.7-1.4,1.3-2.3,1.7c-0.9,0.4-1.9,0.6-3.1,0.6c-1.2,0-2.2-0.2-3.1-0.6c-0.9-0.4-1.7-0.9-2.3-1.7c-0.6-0.7-1.1-1.5-1.4-2.5
		s-0.5-2-0.5-3.1C34,19.4,34.1,18.4,34.4,17.4z M36.9,22.9c0.2,0.7,0.6,1.3,1,1.8c0.4,0.5,0.9,0.8,1.5,1.1c0.6,0.3,1.2,0.4,1.8,0.4
		s1.2-0.1,1.8-0.4c0.6-0.3,1.1-0.6,1.5-1.1s0.8-1.1,1-1.8c0.2-0.7,0.4-1.5,0.4-2.4c0-0.9-0.1-1.7-0.4-2.4c-0.2-0.7-0.6-1.3-1-1.8
		s-0.9-0.9-1.5-1.1c-0.6-0.3-1.2-0.4-1.8-0.4S40,15,39.4,15.2c-0.6,0.3-1.1,0.6-1.5,1.1c-0.4,0.5-0.8,1.1-1,1.8
		c-0.2,0.7-0.4,1.5-0.4,2.4C36.6,21.4,36.7,22.2,36.9,22.9z"/>
	<path class="st1" d="M54,13v2H54c0.4-0.8,1-1.4,1.9-1.8s1.8-0.6,2.9-0.6c1.2,0,2.2,0.2,3,0.6c0.9,0.4,1.6,1,2.1,1.7
		c0.6,0.7,1,1.6,1.3,2.5c0.3,0.9,0.4,2,0.4,3c0,1.1-0.1,2.1-0.4,3S64.6,25.3,64,26c-0.6,0.7-1.3,1.3-2.1,1.7s-1.9,0.6-3,0.6
		c-0.4,0-0.8,0-1.2-0.1c-0.5-0.1-0.9-0.2-1.3-0.4c-0.4-0.2-0.9-0.4-1.3-0.7c-0.4-0.3-0.7-0.7-1-1.1H54v7.7h-2.5V13H54z M62.8,18.3
		c-0.2-0.7-0.5-1.3-0.8-1.8c-0.4-0.5-0.9-0.9-1.5-1.2c-0.6-0.3-1.3-0.5-2.1-0.5c-0.8,0-1.5,0.2-2.1,0.5s-1.1,0.8-1.4,1.3
		c-0.4,0.5-0.6,1.1-0.8,1.8c-0.2,0.7-0.2,1.4-0.2,2.1c0,0.7,0.1,1.4,0.3,2.1c0.2,0.7,0.5,1.3,0.8,1.8c0.4,0.5,0.9,0.9,1.5,1.3
		c0.6,0.3,1.3,0.5,2.2,0.5s1.6-0.2,2.1-0.5c0.6-0.3,1-0.8,1.4-1.3c0.3-0.5,0.6-1.2,0.8-1.9c0.2-0.7,0.2-1.4,0.2-2.1
		C63.1,19.7,63,19,62.8,18.3z"/>
</g>
<text transform="matrix(1 0 0 1 -1.9972 48)" class="st1 st2 st3">    </text>
<g class="st0">
	<path class="st1" d="M32,33.6c0.4-1.3,1-2.5,1.9-3.5c0.8-1,1.9-1.8,3.1-2.4c1.2-0.6,2.7-0.9,4.3-0.9s3.1,0.3,4.3,0.9
		s2.3,1.4,3.1,2.4c0.8,1,1.5,2.2,1.9,3.5c0.4,1.3,0.6,2.7,0.6,4.1s-0.2,2.8-0.6,4.1c-0.4,1.3-1,2.5-1.9,3.5c-0.8,1-1.9,1.8-3.1,2.4
		c-1.2,0.6-2.7,0.9-4.3,0.9s-3.1-0.3-4.3-0.9c-1.2-0.6-2.3-1.4-3.1-2.4c-0.8-1-1.5-2.2-1.9-3.5c-0.4-1.3-0.6-2.7-0.6-4.1
		S31.6,34.9,32,33.6z M34.5,40.7c0.3,1,0.7,1.9,1.3,2.7c0.6,0.8,1.3,1.5,2.2,2s2,0.7,3.2,0.7s2.3-0.2,3.2-0.7s1.7-1.1,2.2-2
		c0.6-0.8,1-1.7,1.3-2.7c0.3-1,0.4-2,0.4-3.1c0-1-0.1-2.1-0.4-3.1s-0.7-1.9-1.3-2.7c-0.6-0.8-1.3-1.5-2.2-2s-2-0.7-3.2-0.7
		s-2.3,0.2-3.2,0.7s-1.7,1.1-2.2,2c-0.6,0.8-1,1.7-1.3,2.7c-0.3,1-0.4,2-0.4,3.1C34.1,38.7,34.2,39.7,34.5,40.7z"/>
	<path class="st1" d="M61.6,48v-2.4h-0.1c-0.5,0.9-1.2,1.6-2,2c-0.8,0.4-1.8,0.7-2.9,0.7c-1,0-1.8-0.1-2.5-0.4
		c-0.7-0.3-1.2-0.6-1.6-1.1c-0.4-0.5-0.7-1.1-0.9-1.7c-0.2-0.7-0.2-1.4-0.2-2.2V33H54v10.2c0,0.9,0.3,1.7,0.8,2.2
		c0.5,0.5,1.3,0.8,2.2,0.8c0.8,0,1.4-0.1,2-0.3c0.6-0.2,1-0.6,1.4-1c0.4-0.4,0.6-0.9,0.8-1.5s0.3-1.2,0.3-1.9V33h2.5v15H61.6z"/>
</g>
<g class="st0">
	<path class="st1" d="M71.7,33v2.2h-3v9.3c0,0.3,0,0.5,0.1,0.7c0,0.2,0.1,0.3,0.3,0.4c0.1,0.1,0.3,0.2,0.6,0.2c0.2,0,0.6,0,0.9,0
		h1.1V48h-1.9c-0.6,0-1.2,0-1.6-0.1c-0.5-0.1-0.8-0.2-1.1-0.5c-0.3-0.2-0.5-0.6-0.6-1c-0.1-0.4-0.2-1-0.2-1.7v-9.5h-2.6V33h2.6v-4.5
		h2.5V33H71.7z"/>
</g>
</svg>
